<?xml version="1.0" standalone="no"?>
<!DOCTYPE svg PUBLIC "-//W3C//DTD SVG 20010904//EN"
 "http://www.w3.org/TR/2001/REC-SVG-20010904/DTD/svg10.dtd">
<svg version="1.0" xmlns="http://www.w3.org/2000/svg"
 width="500.000000pt" height="500.000000pt" viewBox="0 0 500.000000 500.000000"
 preserveAspectRatio="xMidYMid meet">
<metadata>
Created by potrace 1.14, written by Peter Selinger 2001-2017
</metadata>
<g transform="translate(0.000000,500.000000) scale(0.100000,-0.100000)"
fill="#000000" stroke="none">
<path d="M2468 4525 c-2 -1 -55 -5 -118 -8 -63 -4 -126 -9 -140 -12 -13 -2
-40 -7 -60 -10 -208 -31 -550 -162 -720 -275 -102 -67 -137 -93 -225 -166
-274 -225 -481 -518 -606 -858 -32 -84 -83 -273 -93 -341 -14 -89 -17 -114
-21 -151 -6 -48 -6 -346 0 -394 18 -165 21 -180 57 -320 186 -724 765 -1289
1495 -1459 119 -28 154 -34 258 -46 52 -6 357 -6 415 0 172 18 404 77 545 137
127 54 159 70 265 131 371 212 682 567 845 962 39 93 90 243 99 286 2 13 10
47 16 76 31 140 38 234 36 448 -2 121 -6 234 -9 252 -3 17 -11 60 -17 95 -51
289 -188 597 -374 845 -73 98 -220 255 -303 325 -49 42 -221 168 -228 168 -4
0 -25 13 -48 28 -23 16 -89 52 -147 79 -258 125 -500 189 -755 199 -71 3 -138
7 -147 8 -9 2 -18 3 -20 1z"/>
</g>
</svg>
